<svg width="598" height="725" viewBox="0 0 598 725" fill="none" xmlns="http://www.w3.org/2000/svg">
<path d="M277.457 17.2021L277.458 17.2015C277.987 15.999 278.238 14.3101 278.41 12.5201C278.487 11.7217 278.549 10.8883 278.611 10.0536L278.636 9.7248C278.707 8.77792 278.781 7.8331 278.879 6.92389C279.077 5.09241 279.369 3.46185 279.904 2.29089C280.429 1.1426 281.136 0.530187 282.16 0.500066C283.613 0.51407 285.32 0.228832 287.059 -0.121425C287.663 -0.243063 288.27 -0.372261 288.875 -0.501026C290.037 -0.748624 291.192 -0.994617 292.306 -1.18217C293.999 -1.46727 295.517 -1.60134 296.708 -1.40774C297.879 -1.21746 298.659 -0.727894 299.038 0.190644C301.183 5.41228 305.799 11.7394 312.096 19.0403C318.402 26.3515 326.433 34.6825 335.448 43.9131C336.95 45.4518 338.481 47.0157 340.035 48.6041C357.137 66.0822 377.157 86.5428 395.612 109.315C396.578 110.508 397.549 111.706 398.523 112.908C440.905 165.212 490.017 225.822 528.851 285.062C548.714 315.362 565.88 345.292 578.079 373.557C590.281 401.826 597.5 428.401 597.5 452C597.5 522.852 559.857 583.721 501.562 630.52C443.282 677.307 364.394 710 281.987 724.495C200.077 714.496 129.704 689.295 79.8147 648.896C29.9264 608.499 0.5 552.889 0.5 482C0.5 458.021 8.55253 430.938 22.0351 402.086C35.5151 373.24 54.4063 342.662 76.0454 311.702C109.837 263.354 150.302 214.112 187.282 169.112C197.667 156.474 207.778 144.17 217.388 132.315L217.389 132.315C248.099 94.4087 262.666 55.7725 271.647 31.9502C273.873 26.045 275.757 21.05 277.457 17.2021Z" fill="#D3D3D3" stroke="black"/>
</svg>
