<svg width="700" height="670" viewBox="0 0 700 670" fill="none" xmlns="http://www.w3.org/2000/svg">
<path d="M288.025 7.56122L288.025 7.5606C289.896 3.31339 295.125 0.634968 300.16 0.500073C305.578 0.560701 310.298 3.5053 312.075 7.81301C316.327 18.165 327.182 34.0939 341.97 53.6089C356.77 73.1408 375.552 96.3172 395.7 121.179L395.727 121.212C438.75 174.314 489.699 237.198 529.895 298.647C549.997 329.378 567.402 359.738 579.781 388.326C592.162 416.919 599.5 443.709 599.5 467.307C599.5 609.056 465.224 724.5 300 724.5C134.776 724.5 0.5 609.056 0.5 467.307C0.5 443.32 7.97331 416.075 20.5813 386.989C33.1872 357.907 50.9121 327.016 71.3833 295.743C112.327 233.197 164.225 169.174 208.047 115.116L208.047 115.116L208.374 114.712C227.383 91.2506 245.094 69.3902 259.138 50.963C273.252 32.4449 283.699 17.347 288.025 7.56122Z" fill="#D3D3D3" stroke="black"/>
</svg>
